<svg xmlns="http://www.w3.org/2000/svg" viewBox="0 0 64 64">
  <rect x="2" y="2" width="60" height="60" rx="14" fill="#1E3D34" />
  <g fill="#F2E4C9" opacity="0.9">
    <circle cx="12" cy="12" r="5.2" />
    <circle cx="26" cy="12" r="5.2" />
    <circle cx="38" cy="12" r="5.2" />
    <circle cx="52" cy="12" r="5.2" />
    <circle cx="12" cy="26" r="5.2" />
    <circle cx="26" cy="26" r="5.2" />
    <circle cx="38" cy="26" r="5.2" />
    <circle cx="52" cy="26" r="5.2" />
    <circle cx="12" cy="38" r="5.2" />
    <circle cx="26" cy="38" r="5.2" />
    <circle cx="38" cy="38" r="5.2" />
    <circle cx="52" cy="38" r="5.2" />
    <circle cx="12" cy="52" r="5.2" />
    <circle cx="26" cy="52" r="5.2" />
    <circle cx="38" cy="52" r="5.2" />
    <circle cx="52" cy="52" r="5.2" />
  </g>
  <g fill="#C94F3D">
    <circle cx="12" cy="52" r="5.2" />
    <circle cx="26" cy="38" r="5.2" />
    <circle cx="38" cy="26" r="5.2" />
    <circle cx="52" cy="12" r="5.2" />
  </g>
</svg>
